<?xml version="1.0" encoding="UTF-8" standalone="no" ?>
<!DOCTYPE svg PUBLIC "-//W3C//DTD SVG 1.1//EN" "http://www.w3.org/Graphics/SVG/1.1/DTD/svg11.dtd">
<svg xmlns="http://www.w3.org/2000/svg" xmlns:xlink="http://www.w3.org/1999/xlink" version="1.1" width="1080" height="1080" viewBox="0 0 1080 1080" xml:space="preserve">
<desc>Created with Fabric.js 5.2.4</desc>
<defs>
</defs>
<g transform="matrix(1 0 0 1 540 540)" id="9a6fc450-cb9f-43a7-80e7-ba5bb82b88f2"  >
<rect style="stroke: none; stroke-width: 1; stroke-dasharray: none; stroke-linecap: butt; stroke-dashoffset: 0; stroke-linejoin: miter; stroke-miterlimit: 4; fill: rgb(255,255,255); fill-rule: nonzero; opacity: 1; visibility: hidden;" vector-effect="non-scaling-stroke"  x="-540" y="-540" rx="0" ry="0" width="1080" height="1080" />
</g>
<g transform="matrix(1 0 0 1 540 540)" id="6039fd42-fb6f-4d51-b83c-f3b702665cc7"  >
</g>
<g transform="matrix(0.13 0 0 -0.13 433.88 216.59)"  >
<path style="stroke: none; stroke-width: 1; stroke-dasharray: none; stroke-linecap: butt; stroke-dashoffset: 0; stroke-linejoin: miter; stroke-miterlimit: 4; fill: rgb(255,255,255); fill-rule: nonzero; opacity: 1;" vector-effect="non-scaling-stroke"  transform=" translate(-1909.29, -3988.3)" d="M 1906 4150 C 1845 4131 1802 4061 1815 4001 C 1823 3966 1863 3927 1914 3906 C 1950 3891 1952 3888 1948 3851 C 1945 3820 1947 3814 1957 3822 C 1975 3837 1973 3895 1954 3911 C 1945 3919 1919 3934 1897 3945 C 1787 3999 1844 4150 1970 4137 C 2015 4133 2015 4133 1985 4146 C 1950 4161 1945 4161 1906 4150 z" stroke-linecap="round" />
</g>
<g transform="matrix(0.13 0 0 -0.13 421.94 220.32)"  >
<path style="stroke: none; stroke-width: 1; stroke-dasharray: none; stroke-linecap: butt; stroke-dashoffset: 0; stroke-linejoin: miter; stroke-miterlimit: 4; fill: rgb(255,255,255); fill-rule: nonzero; opacity: 1;" vector-effect="non-scaling-stroke"  transform=" translate(-1819.78, -3960.31)" d="M 1786 4048 C 1769 3981 1784 3914 1826 3875 C 1863 3840 1874 3844 1840 3880 C 1807 3916 1785 3987 1794 4035 C 1802 4074 1796 4083 1786 4048 z" stroke-linecap="round" />
</g>
<g transform="matrix(0.13 0 0 -0.13 540 540)"  >
<path style="stroke: none; stroke-width: 0; stroke-dasharray: none; stroke-linecap: butt; stroke-dashoffset: 0; stroke-linejoin: miter; stroke-miterlimit: 4; fill: rgb(255,255,255); fill-rule: nonzero; opacity: 1;" vector-effect="non-scaling-stroke"  transform=" translate(-2556.95, -2505.16)" d="M 2753 3824 C 2709 3790 2449 3665 2275 3595 C 2198 3564 2111 3523 2083 3505 C 2054 3486 2028 3470 2025 3470 C 2023 3470 2021 3529 2021 3600 C 2022 3736 2016 3760 1978 3760 C 1968 3760 1944 3767 1925 3774 C 1906 3782 1890 3785 1890 3781 C 1890 3776 1877 3767 1860 3760 C 1809 3739 1808 3734 1809 3531 C 1810 3362 1808 3340 1793 3324 C 1750 3282 1580 3162 1522 3135 C 1472 3112 1460 3101 1462 3085 C 1465 3068 1474 3065 1533 3062 L 1600 3059 L 1600 2835 L 1600 2611 L 1568 2602 C 1550 2597 1464 2576 1376 2554 C 1289 2533 1215 2509 1213 2502 C 1210 2496 1211 2479 1214 2465 C 1220 2443 1226 2440 1264 2440 C 1291 2440 1312 2434 1320 2425 C 1327 2417 1339 2410 1346 2410 C 1357 2410 1360 2386 1360 2295 L 1360 2181 L 1323 2171 C 1302 2166 1268 2158 1248 2155 C 1202 2146 1174 2127 1185 2110 C 1194 2095 1294 2104 1354 2126 C 1390 2139 1561 2180 1583 2180 C 1587 2180 1590 2158 1590 2130 C 1590 2087 1587 2080 1568 2076 C 1528 2067 1437 2050 1346 2035 C 1250 2018 1230 2008 1230 1979 C 1230 1966 1237 1960 1254 1960 C 1267 1960 1292 1957 1309 1954 L 1340 1948 L 1340 1695 L 1340 1443 L 1288 1461 L 1235 1479 L 1235 1545 C 1235 1598 1239 1614 1252 1621 C 1292 1643 1282 1712 1236 1730 C 1221 1735 1211 1750 1207 1769 C 1200 1803 1162 1825 1127 1816 C 1114 1813 1108 1819 1103 1840 C 1100 1856 1087 1879 1073 1892 C 1052 1912 1039 1915 984 1913 L 920 1912 L 935 1941 C 959 1987 989 2002 1033 1988 C 1060 1980 1076 1980 1095 1988 C 1109 1994 1127 1997 1135 1994 C 1157 1985 1180 2008 1180 2037 C 1180 2059 1178 2061 1164 2049 C 1149 2037 1148 2041 1151 2087 C 1154 2124 1152 2136 1144 2129 C 1137 2123 1128 2125 1120 2136 C 1096 2164 1049 2182 1015 2176 C 986 2170 981 2173 970 2201 C 951 2246 881 2277 831 2261 C 787 2248 742 2204 731 2164 C 725 2139 718 2134 680 2129 C 648 2125 629 2115 608 2090 C 582 2062 579 2051 582 2010 C 584 1973 581 1959 569 1951 C 559 1946 544 1920 535 1895 C 520 1857 519 1843 529 1811 C 539 1775 579 1731 625 1705 C 642 1694 642 1693 625 1667 C 605 1635 610 1600 641 1569 C 659 1551 670 1548 715 1554 L 768 1560 L 808 1512 L 848 1464 L 851 1343 C 853 1276 852 1218 849 1216 C 846 1213 774 1205 689 1199 C 604 1192 531 1184 527 1180 C 510 1165 1495 1158 3022 1161 C 4135 1164 4582 1168 4590 1176 C 4602 1188 4543 1194 4308 1207 C 4173 1214 4163 1228 4290 1232 C 4372 1235 4375 1236 4384 1263 C 4396 1297 4370 1337 4319 1362 C 4300 1371 4276 1387 4265 1398 C 4246 1417 4221 1426 4153 1437 C 4135 1440 4120 1445 4120 1449 C 4121 1452 4138 1467 4160 1482 C 4181 1497 4206 1523 4215 1540 C 4230 1569 4230 1574 4205 1625 C 4191 1655 4168 1687 4155 1696 C 4141 1705 4130 1722 4130 1734 C 4130 1747 4119 1762 4100 1773 L 4071 1791 L 4030 1752 C 4008 1730 3990 1707 3990 1701 C 3990 1695 3984 1690 3977 1690 C 3958 1690 3920 1643 3920 1621 C 3920 1610 3916 1598 3910 1595 C 3903 1591 3900 1644 3900 1747 L 3901 1905 L 3948 1935 L 3995 1965 L 3733 1968 C 3478 1970 3470 1971 3470 1990 C 3470 2009 3477 2010 3745 2010 C 3994 2010 4020 2008 4020 1993 C 4020 1980 4024 1982 4040 2000 C 4051 2013 4060 2026 4060 2030 C 4060 2035 4033 2043 4001 2048 C 3968 2054 3907 2069 3866 2082 L 3790 2105 L 3788 2230 C 3786 2406 3783 2397 3836 2443 L 3884 2485 L 3839 2492 C 3815 2495 3713 2502 3613 2506 C 3512 2510 3430 2517 3430 2522 C 3430 2533 3542 2532 3738 2519 C 3889 2509 3923 2511 3908 2526 C 3897 2536 3769 2550 3599 2559 C 3505 2564 3425 2571 3422 2575 C 3418 2579 3426 2590 3439 2601 C 3462 2620 3456 2620 2934 2620 C 2643 2620 2399 2616 2392 2612 C 2383 2605 2380 2566 2382 2449 L 2385 2295 L 2510 2290 L 2635 2285 L 2578 2253 L 2520 2220 L 2375 2220 C 2253 2220 2230 2218 2230 2205 C 2230 2192 2251 2190 2363 2190 L 2495 2190 L 2447 2159 C 2396 2127 2253 2062 2187 2040 C 2149 2028 2133 2010 2144 1992 C 2147 1987 2217 1996 2302 2011 C 2481 2045 2470 2044 2470 2026 C 2470 2010 2461 2007 2306 1975 C 2240 1961 2185 1948 2183 1946 C 2170 1934 2221 1935 2335 1952 C 2454 1969 2468 1970 2512 1955 C 2538 1947 2572 1940 2589 1940 C 2617 1940 2638 1925 2627 1913 C 2624 1910 2600 1907 2575 1905 C 2549 1903 2526 1899 2523 1896 C 2519 1893 2475 1890 2423 1890 L 2330 1890 L 2330 1710 L 2330 1530 L 2420 1530 L 2510 1530 L 2510 1440 L 2510 1350 L 2431 1350 L 2352 1350 L 2339 1387 L 2327 1424 L 2304 1397 C 2290 1380 2275 1372 2266 1376 C 2255 1380 2250 1376 2250 1363 C 2250 1312 2199 1260 2179 1291 C 2173 1301 2170 1298 2170 1281 C 2170 1258 2168 1258 2109 1262 C 2064 1265 2044 1272 2034 1285 C 2016 1309 2016 1386 2033 1397 C 2040 1401 2053 1417 2063 1432 C 2083 1464 2122 1488 2127 1473 C 2129 1467 2149 1465 2174 1467 C 2220 1473 2240 1459 2221 1436 C 2213 1426 2213 1420 2224 1411 C 2241 1397 2271 1407 2264 1425 C 2261 1432 2269 1445 2281 1454 C 2298 1465 2300 1470 2289 1474 C 2259 1484 2168 1500 2141 1500 C 2124 1500 2110 1507 2106 1516 C 2102 1525 2102 1646 2105 1784 C 2110 2019 2112 2036 2130 2049 C 2142 2057 2150 2074 2150 2091 C 2150 2125 2170 2124 1840 2110 C 1692 2104 1621 2105 1613 2112 C 1606 2118 1600 2135 1600 2151 C 1600 2176 1604 2179 1643 2185 C 1666 2188 1807 2194 1955 2199 L 2225 2209 L 1925 2206 C 1713 2204 1644 2206 1690 2212 C 1726 2217 1860 2222 1987 2223 C 2203 2225 2252 2229 2200 2243 C 2180 2248 2179 2255 2180 2432 C 2181 2532 2186 2620 2191 2626 C 2197 2633 2191 2635 2172 2632 C 2142 2628 2103 2660 2114 2679 C 2119 2686 2345 2690 2811 2690 C 3274 2690 3499 2687 3495 2680 C 3491 2673 3269 2670 2849 2670 C 2430 2670 2210 2667 2210 2660 C 2210 2653 2430 2650 2851 2650 C 3324 2650 3489 2647 3484 2639 C 3480 2632 3483 2629 3491 2632 C 3499 2634 3506 2652 3508 2672 C 3511 2705 3509 2708 3479 2714 C 3462 2717 3423 2720 3394 2720 L 3340 2720 L 3340 2898 L 3340 3075 L 3426 3105 L 3511 3136 L 3468 3167 C 3405 3213 3314 3295 3038 3557 L 2790 3791 L 2688 3702 C 2631 3653 2507 3547 2412 3466 L 2239 3318 L 1887 3199 C 1693 3134 1522 3080 1505 3080 C 1482 3080 1478 3083 1490 3090 C 1518 3108 1663 3162 1938 3256 C 2088 3307 2216 3352 2223 3357 C 2229 3361 2334 3448 2455 3550 C 2706 3762 2778 3820 2791 3820 C 2797 3820 2910 3717 3043 3592 C 3249 3397 3417 3244 3508 3166 C 3520 3155 3533 3149 3536 3153 C 3542 3159 3485 3214 3325 3357 C 3275 3401 3137 3530 3018 3644 C 2899 3757 2798 3850 2793 3850 C 2789 3850 2770 3838 2753 3824 z M 1890 3715 C 1890 3687 1885 3678 1860 3665 L 1830 3649 L 1830 3688 C 1830 3718 1835 3729 1853 3738 C 1887 3754 1890 3753 1890 3715 z M 2934 3548 C 3022 3464 3143 3350 3203 3294 L 3310 3191 L 3310 2956 L 3310 2720 L 3202 2720 C 3142 2720 3091 2722 3088 2725 C 3085 2728 2879 2731 2631 2730 L 2180 2730 L 2180 2959 C 2180 3232 2182 3248 2224 3266 C 2241 3273 2309 3325 2375 3380 C 2598 3570 2655 3617 2710 3658 C 2740 3681 2767 3700 2769 3700 C 2771 3700 2845 3632 2934 3548 z M 1963 3644 C 1983 3641 2002 3634 2005 3630 C 2007 3626 1984 3629 1953 3636 C 1922 3643 1891 3646 1885 3642 C 1864 3626 1820 3611 1820 3619 C 1820 3631 1892 3660 1910 3655 C 1918 3653 1942 3648 1963 3644 z M 1880 3445 L 1880 3270 L 1850 3270 L 1820 3270 L 1820 3435 C 1820 3581 1822 3600 1838 3609 C 1879 3633 1880 3628 1880 3445 z M 2400 3586 C 2400 3584 2392 3576 2383 3569 C 2367 3556 2366 3557 2379 3573 C 2392 3589 2400 3594 2400 3586 z M 2330 3527 C 2330 3526 2302 3498 2268 3465 L 2205 3405 L 2265 3468 C 2320 3526 2330 3535 2330 3527 z M 1927 3348 C 1925 3330 1923 3344 1923 3380 C 1923 3416 1925 3430 1927 3413 C 1929 3395 1929 3365 1927 3348 z M 2160 2981 L 2160 2723 L 2120 2716 C 2087 2711 2080 2706 2080 2686 C 2080 2672 2095 2649 2120 2626 L 2160 2589 L 2160 2418 L 2160 2247 L 2093 2253 C 2055 2257 2006 2260 1983 2260 L 1940 2260 L 1940 2420 C 1940 2564 1942 2581 1958 2587 C 1982 2596 1990 2610 1990 2648 C 1990 2675 1986 2680 1966 2680 C 1946 2680 1799 2653 1723 2635 L 1700 2630 L 1700 2808 L 1700 2987 L 1816 3024 C 1880 3045 1939 3064 1946 3067 C 1955 3070 1960 3065 1960 3052 C 1960 3031 1935 3021 1800 2985 L 1755 2973 L 1752 2876 C 1749 2784 1750 2779 1768 2789 C 1784 2797 1939 2840 1954 2840 C 1957 2840 1960 2836 1960 2831 C 1960 2826 1918 2812 1868 2800 C 1774 2777 1729 2761 1760 2761 C 1779 2760 1849 2776 1918 2796 L 1970 2811 L 1970 2946 C 1970 3049 1967 3080 1957 3080 C 1950 3080 1890 3062 1825 3040 C 1760 3018 1705 3000 1703 3000 C 1701 3000 1700 3022 1700 3049 L 1700 3098 L 1913 3168 C 2029 3206 2133 3238 2143 3239 C 2159 3240 2160 3221 2160 2981 z M 1678 2848 C 1675 2625 1675 2625 1653 2622 L 1630 2619 L 1630 2838 C 1630 2958 1633 3060 1637 3063 C 1640 3067 1652 3070 1662 3070 C 1679 3070 1680 3058 1678 2848 z M 1948 2938 L 1947 2875 L 1940 2925 C 1935 2962 1933 2967 1932 2943 C 1930 2918 1926 2912 1914 2917 C 1905 2920 1894 2917 1889 2909 C 1883 2900 1880 2909 1880 2937 C 1880 2976 1882 2980 1913 2989 C 1930 2994 1946 2999 1948 2999 C 1949 3000 1949 2972 1948 2938 z M 1968 2638 C 1965 2617 1952 2612 1811 2584 C 1726 2567 1662 2550 1668 2546 C 1676 2541 1680 2492 1680 2390 C 1680 2222 1689 2238 1595 2226 C 1573 2223 1540 2218 1523 2214 C 1493 2208 1490 2210 1490 2233 C 1490 2255 1495 2259 1536 2265 C 1612 2276 1610 2273 1610 2365 C 1610 2484 1619 2540 1639 2541 C 1648 2541 1650 2544 1644 2546 C 1638 2549 1581 2539 1519 2524 C 1456 2510 1369 2490 1325 2480 C 1276 2468 1241 2465 1236 2470 C 1231 2475 1229 2482 1232 2486 C 1244 2497 1896 2652 1963 2659 C 1968 2660 1970 2650 1968 2638 z M 3396 2233 C 3394 2230 3373 2226 3349 2223 C 3319 2219 3298 2222 3274 2235 L 3240 2253 L 3240 2412 L 3240 2571 L 3311 2564 C 3379 2558 3381 2558 3388 2581 C 3392 2594 3396 2522 3398 2421 C 3399 2320 3398 2235 3396 2233 z M 1920 2416 C 1920 2238 1934 2256 1788 2245 L 1700 2238 L 1700 2368 L 1700 2498 L 1725 2502 C 1749 2507 1750 2506 1750 2448 L 1750 2389 L 1783 2395 C 1800 2398 1835 2404 1860 2408 L 1905 2415 L 1908 2493 C 1913 2624 1920 2578 1920 2416 z M 3068 2478 C 3067 2385 3067 2385 3060 2450 C 3056 2486 3053 2510 3052 2504 C 3049 2485 2993 2468 2945 2472 C 2900 2475 2900 2475 2900 2443 C 2900 2425 2896 2410 2890 2410 C 2884 2410 2880 2440 2880 2480 L 2880 2550 L 2783 2549 C 2729 2548 2692 2546 2700 2544 C 2712 2540 2714 2522 2712 2445 C 2708 2340 2707 2339 2645 2364 C 2627 2372 2609 2376 2606 2372 C 2603 2369 2600 2408 2600 2458 L 2600 2550 L 2503 2552 C 2422 2554 2432 2555 2560 2560 C 2645 2563 2795 2566 2893 2568 L 3070 2570 L 3068 2478 z M 3210 2435 C 3210 2366 3208 2310 3206 2310 C 3203 2310 3179 2324 3151 2341 L 3100 2373 L 3100 2466 L 3100 2560 L 3155 2560 L 3210 2560 L 3210 2435 z M 2570 2455 C 2570 2377 2568 2370 2553 2378 C 2543 2383 2509 2393 2478 2400 C 2417 2414 2410 2423 2410 2492 C 2410 2532 2406 2531 2538 2538 L 2570 2540 L 2570 2455 z M 2858 2475 C 2856 2440 2851 2408 2848 2404 C 2844 2401 2821 2395 2795 2393 L 2750 2387 L 2750 2464 L 2750 2540 L 2806 2540 L 2862 2540 L 2858 2475 z M 1878 2472 C 1880 2457 1876 2450 1866 2450 C 1855 2450 1850 2459 1850 2476 C 1850 2507 1873 2504 1878 2472 z M 1830 2455 C 1830 2442 1795 2428 1786 2438 C 1783 2441 1780 2451 1780 2460 C 1780 2473 1786 2476 1805 2472 C 1819 2470 1830 2462 1830 2455 z M 3755 2469 C 3767 2457 3773 2285 3765 2166 L 3758 2048 L 3651 2052 C 3548 2056 3544 2057 3490 2094 C 3460 2115 3434 2136 3432 2141 C 3430 2146 3460 2150 3499 2150 L 3569 2150 L 3572 2291 C 3574 2368 3572 2438 3567 2445 C 3554 2469 3591 2481 3672 2478 C 3714 2476 3751 2472 3755 2469 z M 1470 2316 C 1470 2207 1469 2202 1448 2196 C 1435 2193 1415 2190 1403 2190 C 1381 2190 1380 2193 1380 2300 L 1380 2409 L 1413 2419 C 1472 2436 1470 2439 1470 2316 z M 3072 2373 C 3118 2341 3172 2304 3192 2290 C 3212 2277 3227 2264 3225 2262 C 3223 2259 3169 2292 3105 2335 L 2990 2412 L 2842 2330 C 2761 2285 2634 2209 2560 2160 C 2486 2112 2414 2069 2400 2065 C 2355 2053 2651 2244 2783 2313 C 2853 2350 2928 2391 2948 2405 C 2968 2418 2986 2429 2987 2429 C 2988 2430 3027 2404 3072 2373 z M 3547 2359 C 3544 2326 3540 2297 3538 2295 C 3537 2294 3511 2290 3483 2288 L 3430 2283 L 3430 2351 L 3430 2420 L 3491 2420 L 3553 2420 L 3547 2359 z M 1600 2350 C 1600 2297 1598 2290 1580 2290 C 1562 2290 1560 2297 1560 2344 C 1560 2394 1566 2406 1593 2409 C 1597 2410 1600 2383 1600 2350 z M 1540 2340 C 1540 2307 1536 2280 1531 2280 C 1526 2280 1515 2277 1506 2274 C 1492 2269 1490 2278 1490 2334 C 1490 2398 1491 2400 1515 2400 C 1539 2400 1540 2397 1540 2340 z M 3130 2241 C 3294 2114 3430 2000 3430 1988 C 3430 1965 3391 1987 3312 2054 C 3009 2311 2982 2332 2958 2319 C 2919 2298 2820 2230 2689 2133 C 2619 2082 2560 2040 2556 2040 C 2532 2040 2571 2074 2718 2177 C 2947 2339 2963 2350 2976 2350 C 2982 2350 3051 2301 3130 2241 z M 3184 2141 L 3373 1985 L 2959 1979 C 2731 1976 2534 1977 2521 1980 C 2490 1988 2485 2003 2505 2024 C 2526 2044 2548 2045 2552 2025 C 2554 2014 2616 2052 2765 2159 C 2880 2241 2979 2306 2985 2302 C 2990 2299 3080 2226 3184 2141 z M 921 2201 C 937 2185 950 2168 950 2163 C 950 2159 935 2148 917 2140 C 897 2131 881 2114 875 2095 C 870 2079 862 2062 857 2059 C 853 2056 860 2046 874 2036 C 896 2022 900 2012 900 1971 L 900 1922 L 868 1933 C 824 1948 825 1947 841 1967 C 849 1977 840 1972 821 1957 C 780 1923 767 1926 760 1970 L 755 2004 L 727 1966 C 699 1930 696 1891 722 1906 C 729 1910 723 1902 708 1887 C 692 1872 680 1850 680 1836 C 680 1810 703 1780 723 1780 C 730 1780 727 1775 717 1769 C 707 1763 690 1760 680 1763 C 667 1766 664 1763 668 1747 C 672 1729 670 1728 644 1734 C 628 1738 603 1754 588 1771 C 533 1829 561 1901 658 1952 C 703 1976 699 1993 650 1988 C 603 1984 591 2003 610 2049 C 630 2098 691 2114 729 2081 C 751 2062 753 2062 783 2079 C 800 2088 815 2101 818 2108 C 823 2124 788 2124 772 2108 C 763 2099 760 2103 760 2129 C 760 2171 774 2196 808 2214 C 851 2238 888 2234 921 2201 z M 3400 2185 L 3400 2150 L 3360 2176 C 3338 2191 3320 2205 3320 2208 C 3320 2211 3323 2211 3326 2208 C 3329 2205 3343 2206 3358 2210 C 3399 2223 3400 2222 3400 2185 z M 1083 2122 C 1092 2112 1101 2093 1102 2079 C 1105 2059 1100 2054 1078 2052 C 1062 2050 1050 2043 1050 2035 C 1050 2018 1024 2009 996 2016 C 979 2020 967 2014 946 1990 L 920 1958 L 920 1994 C 920 2013 916 2032 910 2035 C 876 2056 922 2130 957 2111 C 972 2104 979 2106 988 2121 C 1004 2146 1061 2147 1083 2122 z M 1290 2124 C 1219 2110 1183 2107 1193 2116 C 1204 2127 1263 2138 1310 2138 C 1354 2138 1353 2137 1290 2124 z M 3442 2060 C 3492 2018 3469 2013 3406 2052 C 3375 2071 3353 2089 3355 2092 C 3366 2103 3410 2087 3442 2060 z M 3820 2064 C 3820 2062 3813 2060 3805 2060 C 3797 2060 3790 2064 3790 2070 C 3790 2075 3797 2077 3805 2074 C 3813 2070 3820 2066 3820 2064 z M 1650 1860 C 1650 1750 1648 1660 1646 1660 C 1644 1660 1635 1657 1626 1654 C 1612 1649 1610 1670 1610 1847 C 1610 1957 1613 2050 1617 2053 C 1620 2057 1629 2060 1637 2060 C 1647 2060 1650 2020 1650 1860 z M 2500 2056 C 2500 2053 2496 2048 2490 2045 C 2485 2042 2480 2044 2480 2049 C 2480 2055 2485 2060 2490 2060 C 2496 2060 2500 2058 2500 2056 z M 1899 1788 L 1900 1660 L 1790 1660 L 1680 1660 L 1680 1780 C 1680 1846 1683 1899 1688 1898 C 1692 1897 1709 1902 1725 1909 C 1742 1916 1784 1932 1820 1945 L 1885 1967 L 1891 1941 C 1895 1927 1898 1858 1899 1788 z M 2080 1825 C 2080 1694 2078 1680 2063 1680 C 2053 1680 2028 1677 2008 1674 L 1970 1667 L 1970 1759 C 1970 1810 1974 1849 1979 1846 C 1993 1837 2050 1861 2060 1880 C 2074 1907 2072 1940 2056 1940 C 2049 1940 2022 1937 1996 1934 L 1950 1927 L 1950 1794 C 1950 1682 1948 1660 1935 1660 C 1923 1660 1920 1679 1920 1775 C 1920 1897 1930 1937 1964 1945 C 2013 1957 2066 1968 2073 1969 C 2077 1970 2080 1905 2080 1825 z M 3419 1951 C 3452 1930 3387 1925 3058 1922 C 2711 1918 2710 1918 2710 1939 C 2710 1960 2712 1960 3058 1960 C 3249 1960 3411 1956 3419 1951 z M 1390 1680 C 1390 1456 1388 1420 1375 1420 C 1362 1420 1360 1456 1360 1680 C 1360 1904 1362 1940 1375 1940 C 1388 1940 1390 1904 1390 1680 z M 3870 1930 C 3870 1925 3866 1920 3860 1920 C 3855 1920 3850 1925 3850 1930 C 3850 1936 3855 1940 3860 1940 C 3866 1940 3870 1936 3870 1930 z M 1499 1884 C 1561 1859 1564 1859 1577 1876 C 1588 1891 1590 1875 1590 1772 L 1590 1650 L 1553 1650 C 1532 1650 1491 1647 1463 1644 L 1410 1637 L 1410 1780 C 1410 1890 1413 1921 1423 1917 C 1429 1914 1464 1899 1499 1884 z M 2680 1635 C 2680 1455 2676 1350 2670 1350 C 2658 1350 2650 1384 2651 1435 C 2658 1779 2664 1920 2671 1920 C 2676 1920 2680 1793 2680 1635 z M 3424 1873 C 3427 1852 3430 1726 3430 1593 L 3430 1350 L 3405 1350 L 3380 1350 L 3380 1630 C 3380 1897 3381 1910 3399 1910 C 3413 1910 3419 1900 3424 1873 z M 2930 1625 C 2930 1448 2926 1350 2920 1350 C 2914 1350 2910 1438 2910 1594 C 2910 1811 2915 1900 2926 1900 C 2928 1900 2930 1776 2930 1625 z M 3880 1630 C 3880 1397 3878 1360 3865 1360 C 3852 1360 3850 1397 3850 1630 C 3850 1863 3852 1900 3865 1900 C 3878 1900 3880 1863 3880 1630 z M 878 1866 C 883 1841 868 1750 863 1773 C 856 1802 843 1792 848 1760 C 852 1731 851 1730 828 1740 C 815 1746 795 1765 785 1781 C 774 1797 755 1813 743 1816 C 730 1820 720 1825 720 1829 C 720 1839 761 1876 780 1883 C 788 1886 813 1888 835 1887 C 865 1885 876 1880 878 1866 z M 2630 1620 L 2630 1350 L 2580 1350 L 2530 1350 L 2530 1448 C 2530 1501 2533 1623 2537 1718 L 2543 1890 L 2587 1890 L 2630 1890 L 2630 1620 z M 1022 1869 C 1040 1869 1054 1862 1061 1848 C 1071 1829 1069 1823 1044 1803 C 1018 1782 1017 1778 1033 1769 C 1064 1751 1052 1732 999 1719 C 953 1707 946 1701 930 1665 C 921 1643 905 1619 896 1611 C 882 1599 880 1603 880 1651 C 880 1697 884 1709 913 1739 C 944 1772 935 1773 896 1741 C 878 1726 877 1726 884 1750 C 888 1764 894 1795 897 1818 C 903 1866 926 1884 970 1874 C 984 1871 1007 1868 1022 1869 z M 3090 1540 C 3137 1540 3150 1537 3150 1525 C 3150 1517 3144 1510 3138 1509 C 3128 1509 3128 1507 3138 1503 C 3146 1500 3150 1474 3150 1424 L 3150 1350 L 3050 1350 L 2950 1350 L 2950 1600 C 2950 1840 2951 1850 2969 1850 C 2980 1850 2996 1843 3004 1834 C 3019 1820 3020 1822 3022 1852 C 3023 1870 3026 1807 3027 1713 L 3030 1540 L 3090 1540 z M 3827 1627 C 3826 1582 3824 1622 3824 1715 C 3824 1809 3826 1845 3827 1797 C 3829 1749 3829 1672 3827 1627 z M 2390 1740 L 2390 1610 L 2450 1610 L 2510 1610 L 2510 1580 L 2510 1550 L 2430 1550 L 2350 1550 L 2350 1710 C 2350 1863 2351 1870 2370 1870 C 2389 1870 2390 1863 2390 1740 z M 2510 1828 L 2510 1785 L 2460 1788 C 2415 1792 2410 1794 2410 1815 C 2410 1828 2407 1845 2404 1854 C 2399 1867 2407 1870 2454 1870 L 2510 1870 L 2510 1828 z M 3799 1673 L 3800 1560 L 3735 1560 L 3670 1560 L 3670 1683 L 3670 1805 L 3728 1836 L 3785 1867 L 3792 1826 C 3795 1803 3799 1734 3799 1673 z M 3150 1850 C 3150 1845 3127 1840 3099 1840 C 3068 1840 3051 1844 3055 1850 C 3058 1856 3081 1860 3106 1860 C 3130 1860 3150 1856 3150 1850 z M 3346 1789 C 3343 1755 3340 1687 3340 1639 L 3340 1550 L 3260 1550 L 3180 1550 L 3180 1700 L 3180 1850 L 3266 1850 L 3353 1850 L 3346 1789 z M 3149 1773 C 3149 1746 3146 1730 3144 1735 C 3142 1741 3122 1744 3100 1742 L 3060 1738 L 3060 1779 L 3060 1820 L 3105 1820 L 3150 1820 L 3149 1773 z M 3650 1690 L 3650 1560 L 3550 1560 L 3450 1560 L 3450 1659 L 3450 1759 L 3523 1775 C 3563 1784 3607 1797 3620 1805 C 3634 1812 3646 1818 3648 1819 C 3649 1820 3650 1762 3650 1690 z M 1170 1765 C 1179 1754 1179 1746 1172 1737 C 1156 1718 1175 1695 1207 1695 C 1226 1695 1236 1689 1238 1677 C 1244 1648 1221 1630 1179 1630 C 1133 1630 1127 1615 1170 1607 C 1191 1602 1200 1595 1200 1580 C 1200 1564 1193 1560 1166 1560 C 1148 1560 1127 1567 1119 1576 C 1108 1589 1104 1588 1083 1561 C 1056 1527 1014 1519 1003 1546 C 996 1565 1017 1640 1030 1640 C 1036 1640 1040 1628 1040 1614 C 1040 1598 1045 1590 1053 1593 C 1059 1595 1065 1610 1065 1626 C 1065 1651 1061 1655 1033 1658 C 1014 1660 1000 1657 1000 1651 C 1000 1645 992 1640 983 1640 C 959 1640 930 1610 930 1584 C 930 1570 942 1553 963 1539 C 980 1527 997 1515 999 1514 C 1001 1512 988 1494 971 1474 C 939 1438 920 1400 920 1377 C 921 1370 928 1379 937 1395 C 955 1430 997 1478 1022 1491 C 1034 1498 1044 1495 1057 1482 C 1067 1472 1088 1463 1105 1462 C 1150 1459 1156 1445 1124 1415 C 1100 1394 1088 1391 1057 1395 C 1009 1402 959 1381 930 1340 C 912 1315 908 1299 912 1259 C 916 1225 913 1210 905 1210 C 896 1210 891 1259 887 1387 L 882 1564 L 914 1604 C 933 1627 952 1654 958 1665 C 965 1678 987 1691 1019 1699 C 1047 1706 1075 1719 1080 1728 C 1089 1743 1090 1743 1088 1726 C 1086 1716 1091 1705 1099 1702 C 1109 1699 1111 1703 1107 1720 C 1095 1768 1141 1800 1170 1765 z M 2887 1458 C 2886 1401 2884 1447 2884 1560 C 2884 1673 2886 1719 2887 1663 C 2889 1606 2889 1514 2887 1458 z M 3359 1356 C 3350 1348 3349 1380 3354 1484 C 3357 1561 3361 1655 3362 1694 C 3364 1733 3366 1675 3367 1566 C 3370 1425 3367 1363 3359 1356 z M 4121 1683 C 4146 1690 4147 1664 4123 1637 C 4105 1618 4106 1618 4127 1631 C 4161 1652 4179 1630 4156 1595 C 4139 1569 4139 1569 4159 1579 C 4215 1610 4214 1571 4156 1514 C 4132 1490 4108 1470 4103 1470 C 4090 1470 4080 1552 4080 1656 C 4080 1739 4093 1780 4098 1715 C 4101 1684 4104 1679 4121 1683 z M 826 1715 C 849 1700 860 1656 860 1578 C 860 1500 854 1497 799 1551 C 762 1587 750 1606 750 1629 C 750 1660 735 1679 727 1658 C 724 1648 719 1648 710 1656 C 701 1665 702 1674 714 1698 C 723 1715 735 1731 742 1734 C 759 1741 800 1732 826 1715 z M 4050 1638 C 4050 1547 4050 1547 4030 1565 C 3998 1594 3968 1648 3976 1661 C 3981 1670 3987 1668 3995 1656 C 4006 1642 4008 1645 4014 1679 C 4019 1712 4026 1722 4048 1729 C 4049 1730 4050 1689 4050 1638 z M 2485 1700 L 2455 1692 L 2483 1691 C 2503 1690 2510 1685 2510 1670 C 2510 1653 2507 1652 2484 1660 C 2407 1690 2399 1711 2468 1709 C 2510 1708 2512 1707 2485 1700 z M 2712 1457 C 2714 1398 2712 1350 2708 1350 C 2703 1350 2701 1421 2702 1508 C 2704 1668 2708 1650 2712 1457 z M 730 1619 C 730 1593 681 1585 664 1607 C 644 1634 647 1638 690 1636 C 720 1636 730 1631 730 1619 z M 1650 1535 C 1650 1448 1647 1430 1635 1430 C 1623 1430 1620 1448 1620 1535 C 1620 1622 1623 1640 1635 1640 C 1647 1640 1650 1622 1650 1535 z M 1890 1605 C 1890 1571 1889 1570 1850 1570 C 1812 1570 1810 1572 1810 1599 C 1810 1622 1815 1630 1833 1633 C 1886 1643 1890 1642 1890 1605 z M 2080 1563 C 2079 1495 2076 1481 2055 1458 C 2035 1434 2023 1430 1980 1430 L 1930 1430 L 1930 1535 L 1930 1640 L 2005 1640 L 2080 1640 L 2080 1563 z M 1470 1615 C 1470 1605 1460 1600 1440 1600 C 1402 1600 1401 1617 1438 1623 C 1453 1625 1466 1628 1468 1629 C 1469 1629 1470 1623 1470 1615 z M 1530 1615 C 1530 1606 1521 1600 1505 1600 C 1481 1600 1473 1610 1487 1623 C 1499 1636 1530 1630 1530 1615 z M 1590 1615 C 1590 1607 1581 1600 1571 1600 C 1561 1600 1550 1607 1546 1615 C 1542 1626 1547 1630 1565 1630 C 1581 1630 1590 1624 1590 1615 z M 1790 1600 C 1790 1572 1788 1570 1750 1570 C 1716 1570 1710 1573 1709 1593 C 1708 1609 1707 1611 1703 1598 C 1698 1580 1670 1573 1670 1589 C 1670 1621 1684 1630 1736 1630 C 1789 1630 1790 1630 1790 1600 z M 3964 1598 C 3961 1594 3975 1580 3995 1569 C 4032 1547 4050 1523 4050 1495 C 4050 1484 4044 1481 4026 1486 C 4013 1489 3999 1487 3996 1481 C 3986 1466 3938 1467 3916 1483 C 3904 1492 3899 1506 3902 1525 C 3905 1552 3909 1555 3944 1558 L 3982 1561 L 3960 1585 C 3948 1598 3941 1614 3945 1620 C 3951 1629 3955 1629 3961 1619 C 3965 1612 3966 1602 3964 1598 z M 990 1603 C 990 1598 986 1589 981 1581 C 970 1564 949 1576 957 1595 C 962 1610 990 1616 990 1603 z M 3150 1585 C 3150 1562 3147 1560 3100 1560 C 3053 1560 3050 1562 3050 1585 C 3050 1608 3053 1610 3100 1610 C 3147 1610 3150 1608 3150 1585 z M 1470 1546 C 1470 1478 1459 1450 1434 1450 C 1411 1450 1410 1453 1410 1515 L 1410 1580 L 1440 1580 C 1467 1580 1470 1577 1470 1546 z M 1530 1520 C 1530 1463 1529 1460 1505 1460 C 1481 1460 1480 1463 1480 1520 C 1480 1577 1481 1580 1505 1580 C 1529 1580 1530 1577 1530 1520 z M 1590 1505 C 1590 1431 1587 1423 1563 1438 C 1550 1446 1537 1564 1547 1574 C 1551 1577 1562 1580 1572 1580 C 1588 1580 1590 1571 1590 1505 z M 1788 1498 C 1786 1460 1780 1435 1773 1432 C 1763 1429 1760 1445 1760 1491 C 1760 1525 1757 1550 1753 1546 C 1749 1543 1747 1516 1747 1487 C 1748 1440 1747 1438 1740 1470 L 1733 1505 L 1731 1468 C 1730 1433 1728 1430 1700 1430 L 1670 1430 L 1670 1495 L 1670 1560 L 1730 1560 L 1791 1560 L 1788 1498 z M 1890 1495 L 1890 1430 L 1850 1430 L 1810 1430 L 1810 1495 L 1810 1560 L 1850 1560 L 1890 1560 L 1890 1495 z M 1178 1528 C 1195 1511 1193 1500 1173 1500 C 1158 1500 1157 1498 1170 1490 C 1178 1485 1181 1478 1178 1474 C 1167 1464 1138 1478 1145 1490 C 1148 1495 1142 1500 1131 1500 C 1119 1500 1110 1504 1110 1508 C 1110 1522 1133 1540 1150 1540 C 1159 1540 1171 1535 1178 1528 z M 3550 1531 C 3550 1526 3527 1520 3500 1518 C 3465 1516 3450 1519 3450 1528 C 3450 1536 3467 1540 3500 1540 C 3528 1540 3550 1536 3550 1531 z M 3650 1530 C 3650 1525 3630 1520 3605 1520 C 3580 1520 3560 1525 3560 1530 C 3560 1536 3580 1540 3605 1540 C 3630 1540 3650 1536 3650 1530 z M 3790 1531 C 3790 1526 3763 1521 3730 1521 C 3697 1521 3670 1525 3670 1531 C 3670 1536 3697 1540 3730 1540 C 3763 1540 3790 1536 3790 1531 z M 1085 1520 C 1082 1515 1074 1510 1069 1510 C 1063 1510 1062 1515 1065 1520 C 1068 1526 1076 1530 1081 1530 C 1087 1530 1088 1526 1085 1520 z M 3300 1440 L 3300 1350 L 3240 1350 L 3180 1350 L 3180 1440 L 3180 1530 L 3240 1530 L 3300 1530 L 3300 1440 z M 3339 1458 C 3339 1418 3335 1376 3330 1365 C 3324 1352 3321 1377 3321 1438 C 3320 1493 3324 1530 3330 1530 C 3336 1530 3340 1500 3339 1458 z M 3650 1445 C 3650 1408 3646 1380 3640 1380 C 3635 1380 3630 1386 3629 1393 C 3629 1399 3624 1395 3618 1383 C 3612 1370 3599 1360 3588 1360 C 3572 1360 3570 1369 3570 1435 L 3570 1510 L 3610 1510 L 3650 1510 L 3650 1445 z M 3730 1481 C 3730 1436 3720 1420 3694 1420 C 3672 1420 3670 1424 3670 1465 C 3670 1508 3671 1510 3700 1510 C 3726 1510 3730 1507 3730 1481 z M 3790 1465 C 3790 1424 3788 1420 3765 1420 C 3742 1420 3740 1424 3740 1465 C 3740 1506 3742 1510 3765 1510 C 3788 1510 3790 1506 3790 1465 z M 3830 1434 C 3830 1393 3826 1361 3822 1364 C 3809 1372 3808 1510 3820 1510 C 3826 1510 3830 1477 3830 1434 z M 3550 1476 C 3550 1463 3547 1432 3544 1406 L 3537 1360 L 3494 1360 L 3450 1360 L 3450 1430 L 3450 1500 L 3500 1500 C 3546 1500 3550 1498 3550 1476 z M 3969 1450 C 3990 1450 4000 1445 4000 1435 C 4000 1426 3991 1420 3975 1420 C 3961 1420 3938 1413 3925 1404 L 3900 1388 L 3900 1429 C 3900 1467 3902 1470 3919 1460 C 3930 1455 3952 1450 3969 1450 z M 1308 1424 C 1340 1403 1337 1359 1302 1323 C 1286 1308 1269 1288 1264 1280 C 1259 1272 1245 1259 1233 1253 C 1214 1242 1212 1243 1216 1255 C 1220 1263 1218 1270 1213 1270 C 1198 1270 1180 1247 1180 1228 C 1180 1211 1171 1210 1068 1212 C 959 1215 955 1216 941 1241 C 905 1305 997 1386 1080 1364 C 1101 1358 1125 1357 1132 1361 C 1139 1366 1164 1370 1188 1370 C 1214 1370 1229 1374 1225 1380 C 1222 1386 1202 1390 1182 1390 L 1145 1391 L 1179 1421 C 1208 1448 1217 1451 1249 1445 C 1269 1442 1295 1432 1308 1424 z M 1460 1430 C 1460 1425 1451 1420 1441 1420 C 1430 1420 1418 1425 1415 1430 C 1411 1436 1420 1440 1434 1440 C 1448 1440 1460 1436 1460 1430 z M 1530 1436 C 1530 1434 1519 1430 1505 1428 C 1491 1425 1480 1427 1480 1431 C 1480 1436 1491 1440 1505 1440 C 1519 1440 1530 1438 1530 1436 z M 4065 1430 C 4068 1425 4092 1420 4117 1420 C 4186 1420 4224 1380 4180 1352 C 4169 1345 4160 1333 4160 1325 C 4160 1304 4143 1306 4109 1330 C 4087 1346 4076 1349 4061 1341 C 4044 1332 4041 1336 4031 1376 C 4025 1401 4022 1425 4025 1431 C 4033 1443 4057 1443 4065 1430 z M 1910 1400 L 2006 1400 L 2001 1359 C 1995 1320 1993 1317 1960 1314 C 1938 1311 1917 1301 1903 1285 C 1880 1258 1842 1252 1822 1272 C 1813 1281 1807 1275 1794 1245 L 1778 1207 L 1754 1236 C 1730 1265 1730 1265 1724 1242 C 1719 1224 1715 1222 1704 1231 C 1694 1239 1690 1267 1690 1328 L 1690 1413 L 1751 1406 C 1785 1403 1856 1400 1910 1400 z M 3786 1383 C 3787 1365 3782 1360 3764 1360 C 3745 1360 3740 1365 3740 1386 C 3740 1407 3744 1411 3763 1408 C 3778 1406 3785 1398 3786 1383 z M 3990 1375 C 3990 1364 3979 1360 3954 1360 C 3923 1360 3919 1362 3930 1375 C 3937 1383 3953 1390 3966 1390 C 3981 1390 3990 1384 3990 1375 z M 1670 1318 L 1669 1265 L 1641 1299 C 1614 1332 1613 1333 1544 1328 C 1506 1326 1457 1329 1435 1336 L 1395 1348 L 1470 1354 C 1511 1357 1561 1362 1580 1363 C 1676 1373 1670 1376 1670 1318 z M 3717 1364 C 3714 1361 3705 1360 3698 1363 C 3690 1366 3693 1369 3704 1369 C 3715 1370 3721 1367 3717 1364 z M 4321 1334 C 4346 1321 4351 1314 4348 1287 C 4345 1257 4342 1255 4304 1252 C 4254 1248 4210 1264 4210 1287 C 4210 1310 4249 1350 4272 1350 C 4283 1350 4305 1343 4321 1334 z M 1380 1320 C 1380 1315 1393 1310 1410 1310 C 1445 1310 1487 1292 1494 1274 C 1499 1261 1488 1256 1468 1259 C 1464 1259 1463 1254 1466 1246 C 1476 1220 1403 1206 1273 1209 C 1236 1210 1229 1225 1260 1235 C 1271 1238 1280 1247 1280 1255 C 1280 1276 1336 1330 1359 1330 C 1371 1330 1380 1326 1380 1320 z M 2589 1324 C 2618 1318 2621 1314 2618 1286 L 2615 1255 L 2478 1252 L 2340 1249 L 2340 1290 L 2340 1330 L 2449 1330 C 2509 1330 2572 1327 2589 1324 z M 3430 1310 C 3436 1302 3439 1279 3438 1260 L 3435 1225 L 3078 1222 C 2725 1220 2720 1220 2720 1240 C 2720 1260 2726 1260 3036 1260 C 3243 1260 3349 1263 3345 1270 C 3341 1276 3217 1280 3004 1280 C 2679 1280 2670 1281 2670 1300 C 2670 1324 2692 1325 3118 1325 C 3376 1325 3422 1323 3430 1310 z M 3992 1306 C 4008 1270 3996 1250 3959 1250 C 3941 1250 3918 1243 3908 1233 C 3897 1224 3890 1222 3890 1228 C 3890 1235 3884 1240 3876 1240 C 3868 1240 3860 1245 3858 1252 C 3855 1260 3846 1258 3829 1246 C 3815 1237 3800 1233 3797 1237 C 3793 1240 3790 1238 3790 1232 C 3790 1225 3785 1220 3779 1220 C 3773 1220 3770 1229 3773 1240 C 3780 1266 3760 1266 3726 1239 C 3690 1210 3683 1221 3709 1265 C 3728 1298 3728 1301 3713 1298 C 3703 1296 3684 1278 3671 1257 C 3644 1217 3615 1209 3607 1240 C 3604 1251 3597 1260 3591 1260 C 3585 1260 3576 1251 3570 1240 C 3562 1224 3549 1220 3510 1220 L 3460 1220 L 3460 1270 L 3460 1320 L 3688 1323 C 3813 1324 3930 1326 3948 1328 C 3974 1330 3983 1325 3992 1306 z M 1604 1294 C 1615 1266 1610 1233 1594 1219 C 1580 1208 1574 1209 1554 1233 C 1528 1264 1523 1295 1543 1303 C 1568 1314 1598 1309 1604 1294 z M 4138 1280 C 4155 1269 4170 1255 4170 1250 C 4170 1244 4166 1241 4161 1244 C 4156 1247 4147 1243 4140 1235 C 4123 1215 4084 1216 4075 1238 C 4069 1253 4067 1253 4050 1233 C 4036 1215 4021 1210 3985 1210 C 3957 1210 3941 1214 3945 1220 C 3948 1226 3964 1230 3980 1230 C 3999 1230 4019 1241 4043 1265 C 4083 1305 4093 1307 4138 1280 z M 1990 1271 C 2008 1237 2001 1230 1955 1230 C 1918 1230 1910 1233 1910 1248 C 1910 1289 1970 1307 1990 1271 z M 2700 1260 C 2700 1255 2691 1250 2680 1250 C 2669 1250 2660 1255 2660 1260 C 2660 1266 2669 1270 2680 1270 C 2691 1270 2700 1266 2700 1260 z M 1895 1215 C 1895 1210 1878 1204 1858 1202 C 1822 1199 1811 1207 1827 1224 C 1838 1234 1895 1227 1895 1215 z" stroke-linecap="round" />
</g>
<g transform="matrix(0.13 0 0 -0.13 548.95 273.77)"  >
<path style="stroke: none; stroke-width: 1; stroke-dasharray: none; stroke-linecap: butt; stroke-dashoffset: 0; stroke-linejoin: miter; stroke-miterlimit: 4; fill: rgb(255,255,255); fill-rule: nonzero; opacity: 1;" vector-effect="non-scaling-stroke"  transform=" translate(-2772.31, -3559.41)" d="M 2727 3620 C 2683 3585 2684 3527 2729 3493 C 2774 3459 2850 3500 2850 3558 C 2850 3627 2781 3662 2727 3620 z M 2808 3537 C 2812 3516 2772 3499 2748 3512 C 2724 3524 2725 3533 2753 3547 C 2783 3562 2804 3558 2808 3537 z" stroke-linecap="round" />
</g>
<g transform="matrix(0.13 0 0 -0.13 551.82 347.04)"  >
<path style="stroke: none; stroke-width: 1; stroke-dasharray: none; stroke-linecap: butt; stroke-dashoffset: 0; stroke-linejoin: miter; stroke-miterlimit: 4; fill: rgb(255,255,255); fill-rule: nonzero; opacity: 1;" vector-effect="non-scaling-stroke"  transform=" translate(-2793.85, -3009.92)" d="M 2500 3099 C 2500 2927 2499 2918 2480 2913 C 2469 2910 2460 2904 2460 2899 C 2460 2894 2469 2890 2480 2890 C 2498 2890 2500 2883 2500 2821 C 2500 2767 2504 2751 2516 2746 C 2525 2743 2652 2740 2800 2740 C 3104 2740 3080 2732 3080 2831 C 3080 2888 3081 2890 3106 2890 C 3137 2890 3134 2910 3102 2925 C 3081 2934 3080 2940 3080 3107 L 3080 3280 L 2790 3280 L 2500 3280 L 2500 3099 z M 3060 3100 L 3060 2940 L 2985 2940 L 2910 2940 L 2910 3069 C 2910 3140 2907 3205 2904 3214 C 2899 3228 2873 3230 2719 3230 L 2540 3230 L 2540 3086 C 2540 3000 2536 2939 2530 2935 C 2523 2931 2520 2987 2520 3094 L 2520 3260 L 2790 3260 L 3060 3260 L 3060 3100 z M 2870 3060 L 2870 2940 L 2805 2940 L 2740 2940 L 2740 3003 C 2740 3073 2752 3091 2819 3125 C 2837 3134 2855 3150 2857 3161 C 2867 3199 2870 3178 2870 3060 z M 2700 3025 L 2700 2940 L 2640 2940 L 2580 2940 L 2580 2985 C 2580 3019 2585 3033 2603 3045 C 2637 3069 2695 3108 2698 3109 C 2699 3110 2700 3072 2700 3025 z M 3060 2835 L 3060 2760 L 2795 2760 L 2530 2760 L 2530 2835 L 2530 2910 L 2795 2910 L 3060 2910 L 3060 2835 z" stroke-linecap="round" />
</g>
<g transform="matrix(0.13 0 0 -0.13 366.75 257.76)"  >
<path style="stroke: none; stroke-width: 1; stroke-dasharray: none; stroke-linecap: butt; stroke-dashoffset: 0; stroke-linejoin: miter; stroke-miterlimit: 4; fill: rgb(255,255,255); fill-rule: nonzero; opacity: 1;" vector-effect="non-scaling-stroke"  transform=" translate(-1405.83, -3679.51)" d="M 1340 3819 C 1275 3793 1222 3709 1235 3651 C 1241 3623 1290 3566 1290 3588 C 1290 3594 1286 3602 1280 3605 C 1275 3608 1270 3636 1270 3667 C 1270 3718 1273 3725 1308 3760 C 1358 3810 1405 3820 1468 3794 C 1528 3769 1560 3723 1560 3663 C 1560 3625 1554 3612 1526 3584 C 1505 3563 1482 3550 1466 3550 C 1452 3550 1440 3546 1440 3540 C 1440 3535 1453 3530 1469 3530 C 1505 3530 1553 3568 1570 3610 C 1587 3650 1578 3721 1551 3758 C 1510 3816 1408 3846 1340 3819 z" stroke-linecap="round" />
</g>
<g transform="matrix(0.13 0 0 -0.13 734.13 251.63)"  >
<path style="stroke: none; stroke-width: 1; stroke-dasharray: none; stroke-linecap: butt; stroke-dashoffset: 0; stroke-linejoin: miter; stroke-miterlimit: 4; fill: rgb(255,255,255); fill-rule: nonzero; opacity: 1;" vector-effect="non-scaling-stroke"  transform=" translate(-4161.15, -3725.5)" d="M 4093 3795 C 4076 3788 4057 3772 4050 3761 C 4044 3748 4029 3740 4014 3740 C 3986 3740 3935 3696 3945 3680 C 3949 3674 3960 3680 3972 3695 C 3984 3711 4001 3720 4020 3720 C 4038 3720 4053 3728 4064 3745 C 4087 3779 4149 3797 4186 3779 C 4202 3771 4219 3756 4225 3745 C 4230 3734 4246 3724 4259 3722 C 4288 3719 4320 3693 4320 3673 C 4320 3663 4276 3660 4093 3659 C 3939 3658 3885 3655 3925 3650 C 4019 3638 4410 3638 4410 3650 C 4410 3656 4395 3660 4378 3660 C 4350 3660 4342 3666 4325 3697 C 4312 3721 4294 3738 4275 3745 C 4259 3750 4241 3760 4237 3767 C 4225 3786 4174 3810 4148 3810 C 4135 3809 4111 3803 4093 3795 z" stroke-linecap="round" />
</g>
<g transform="matrix(0.13 0 0 -0.13 367.31 278.29)"  >
<path style="stroke: none; stroke-width: 1; stroke-dasharray: none; stroke-linecap: butt; stroke-dashoffset: 0; stroke-linejoin: miter; stroke-miterlimit: 4; fill: rgb(255,255,255); fill-rule: nonzero; opacity: 1;" vector-effect="non-scaling-stroke"  transform=" translate(-1410, -3525.58)" d="M 1230 3595 C 1230 3565 1263 3516 1305 3485 C 1347 3452 1419 3442 1473 3459 C 1516 3474 1590 3551 1590 3582 C 1590 3601 1587 3599 1571 3570 C 1502 3441 1332 3437 1260 3564 C 1241 3597 1230 3608 1230 3595 z" stroke-linecap="round" />
</g>
<g transform="matrix(0.13 0 0 -0.13 640.15 272.65)"  >
<path style="stroke: none; stroke-width: 1; stroke-dasharray: none; stroke-linecap: butt; stroke-dashoffset: 0; stroke-linejoin: miter; stroke-miterlimit: 4; fill: rgb(255,255,255); fill-rule: nonzero; opacity: 1;" vector-effect="non-scaling-stroke"  transform=" translate(-3456.31, -3567.85)" d="M 3417 3593 C 3518 3590 3529 3587 3535 3570 C 3545 3539 3575 3527 3595 3546 C 3612 3564 3612 3591 3594 3597 C 3588 3599 3584 3590 3584 3578 C 3585 3548 3556 3548 3552 3578 C 3549 3600 3546 3600 3427 3598 L 3305 3596 L 3417 3593 z" stroke-linecap="round" />
</g>
<g transform="matrix(0.13 0 0 -0.13 643.28 295.03)"  >
<path style="stroke: none; stroke-width: 1; stroke-dasharray: none; stroke-linecap: butt; stroke-dashoffset: 0; stroke-linejoin: miter; stroke-miterlimit: 4; fill: rgb(255,255,255); fill-rule: nonzero; opacity: 1;" vector-effect="non-scaling-stroke"  transform=" translate(-3479.78, -3400.01)" d="M 3327 3428 C 3307 3418 3305 3389 3322 3372 C 3330 3364 3337 3364 3346 3371 C 3353 3376 3423 3383 3501 3386 C 3580 3389 3646 3393 3649 3395 C 3651 3398 3592 3400 3516 3400 C 3407 3400 3378 3403 3374 3414 C 3366 3434 3347 3440 3327 3428 z M 3352 3405 C 3352 3400 3347 3394 3341 3392 C 3335 3390 3330 3396 3330 3405 C 3330 3414 3335 3420 3341 3418 C 3347 3416 3352 3410 3352 3405 z" stroke-linecap="round" />
</g>
<g transform="matrix(0.13 0 0 -0.13 701.44 346.36)"  >
<path style="stroke: none; stroke-width: 1; stroke-dasharray: none; stroke-linecap: butt; stroke-dashoffset: 0; stroke-linejoin: miter; stroke-miterlimit: 4; fill: rgb(255,255,255); fill-rule: nonzero; opacity: 1;" vector-effect="non-scaling-stroke"  transform=" translate(-3916.03, -3015.04)" d="M 3908 3140 C 3865 3117 3831 3076 3823 3038 C 3816 3002 3783 3000 3770 3035 C 3757 3068 3698 3094 3653 3085 C 3632 3081 3610 3067 3593 3045 C 3569 3015 3559 3010 3523 3010 C 3499 3010 3480 3006 3480 3000 C 3480 2995 3504 2990 3534 2990 C 3584 2990 3588 2992 3599 3019 C 3619 3067 3684 3085 3728 3054 C 3756 3035 3756 3026 3728 3012 C 3706 3002 3707 3001 3736 3001 C 3753 3000 3781 2997 3798 2994 C 3825 2988 3829 2991 3835 3019 C 3850 3089 3922 3142 3999 3142 C 4094 3141 4147 3102 4174 3013 L 4181 2990 L 4046 2990 C 3962 2990 3910 2986 3910 2980 C 3910 2974 3962 2970 4045 2970 L 4179 2970 L 4215 2939 C 4234 2922 4250 2904 4250 2899 C 4250 2894 4194 2890 4125 2890 C 4048 2890 4000 2886 4000 2880 C 4000 2874 4069 2870 4188 2871 C 4297 2872 4365 2875 4350 2880 C 4336 2884 4313 2888 4298 2889 C 4281 2890 4269 2897 4265 2910 C 4262 2921 4244 2941 4227 2954 C 4207 2969 4194 2989 4192 3005 C 4188 3059 4133 3128 4077 3149 C 4032 3166 3949 3161 3908 3140 z" stroke-linecap="round" />
</g>
<g transform="matrix(0.13 0 0 -0.13 330.45 353.71)"  >
<path style="stroke: none; stroke-width: 1; stroke-dasharray: none; stroke-linecap: butt; stroke-dashoffset: 0; stroke-linejoin: miter; stroke-miterlimit: 4; fill: rgb(255,255,255); fill-rule: nonzero; opacity: 1;" vector-effect="non-scaling-stroke"  transform=" translate(-1133.58, -2959.88)" d="M 1022 3010 C 988 2995 975 2981 963 2950 C 953 2924 941 2910 929 2910 C 919 2910 908 2906 905 2900 C 898 2888 1171 2888 1320 2900 C 1398 2905 1375 2907 1193 2908 C 1070 2909 970 2912 970 2915 C 970 2919 977 2935 986 2951 C 1015 3009 1112 3029 1155 2986 C 1171 2970 1186 2964 1203 2967 C 1221 2971 1232 2965 1244 2949 C 1252 2936 1262 2929 1265 2932 C 1273 2939 1231 2990 1217 2990 C 1210 2991 1187 2999 1165 3010 C 1114 3035 1076 3035 1022 3010 z" stroke-linecap="round" />
</g>
<g transform="matrix(0.13 0 0 -0.13 678.21 366.27)"  >
<path style="stroke: none; stroke-width: 1; stroke-dasharray: none; stroke-linecap: butt; stroke-dashoffset: 0; stroke-linejoin: miter; stroke-miterlimit: 4; fill: rgb(255,255,255); fill-rule: nonzero; opacity: 1;" vector-effect="non-scaling-stroke"  transform=" translate(-3741.78, -2865.67)" d="M 3480 2880 C 3488 2875 3548 2870 3614 2870 C 3718 2870 3731 2868 3720 2855 C 3709 2842 3725 2840 3856 2842 L 4005 2844 L 3874 2847 C 3748 2850 3742 2852 3747 2870 C 3752 2889 3747 2890 3609 2890 C 3512 2890 3470 2887 3480 2880 z" stroke-linecap="round" />
</g>
<g transform="matrix(0.13 0 0 -0.13 293.89 381.13)"  >
<path style="stroke: none; stroke-width: 1; stroke-dasharray: none; stroke-linecap: butt; stroke-dashoffset: 0; stroke-linejoin: miter; stroke-miterlimit: 4; fill: rgb(255,255,255); fill-rule: nonzero; opacity: 1;" vector-effect="non-scaling-stroke"  transform=" translate(-859.35, -2754.26)" d="M 694 2826 C 676 2818 659 2806 655 2799 C 649 2790 652 2789 666 2795 C 676 2800 706 2805 731 2808 C 772 2811 780 2808 805 2781 C 827 2759 840 2752 857 2756 C 872 2760 887 2754 904 2736 C 919 2722 930 2706 930 2700 C 930 2688 941 2689 665 2680 C 477 2674 495 2674 835 2673 C 1054 2673 1196 2676 1170 2681 C 1145 2685 1087 2689 1040 2689 C 955 2690 955 2690 942 2720 C 928 2751 885 2780 854 2780 C 845 2780 825 2791 808 2805 C 792 2819 772 2830 765 2830 C 758 2830 746 2832 738 2835 C 731 2837 711 2833 694 2826 z" stroke-linecap="round" />
</g>
<g transform="matrix(0.13 0 0 -0.13 364.64 383.36)"  >
<path style="stroke: none; stroke-width: 1; stroke-dasharray: none; stroke-linecap: butt; stroke-dashoffset: 0; stroke-linejoin: miter; stroke-miterlimit: 4; fill: rgb(255,255,255); fill-rule: nonzero; opacity: 1;" vector-effect="non-scaling-stroke"  transform=" translate(-1390, -2737.5)" d="M 1359 2754 C 1342 2733 1359 2705 1390 2705 C 1421 2705 1438 2733 1421 2754 C 1413 2763 1400 2770 1390 2770 C 1380 2770 1367 2763 1359 2754 z M 1410 2735 C 1410 2727 1401 2720 1390 2720 C 1379 2720 1370 2727 1370 2735 C 1370 2743 1379 2750 1390 2750 C 1401 2750 1410 2743 1410 2735 z" stroke-linecap="round" />
</g>
<g transform="matrix(0.13 0 0 -0.13 754.64 405.79)"  >
<path style="stroke: none; stroke-width: 1; stroke-dasharray: none; stroke-linecap: butt; stroke-dashoffset: 0; stroke-linejoin: miter; stroke-miterlimit: 4; fill: rgb(255,255,255); fill-rule: nonzero; opacity: 1;" vector-effect="non-scaling-stroke"  transform=" translate(-4315, -2569.31)" d="M 4391 2624 C 4361 2599 4360 2599 4313 2615 C 4249 2637 4195 2627 4153 2585 C 4135 2567 4120 2543 4120 2531 C 4120 2512 4114 2510 4060 2510 C 4027 2510 4000 2506 4000 2500 C 4000 2494 4032 2490 4075 2490 C 4143 2490 4166 2499 4140 2515 C 4125 2525 4149 2565 4183 2585 C 4218 2606 4287 2608 4321 2589 C 4334 2582 4354 2575 4365 2573 C 4416 2566 4431 2558 4442 2535 C 4448 2520 4462 2510 4473 2510 C 4490 2510 4486 2517 4452 2550 C 4430 2572 4403 2590 4393 2590 C 4379 2590 4382 2595 4405 2610 C 4447 2638 4510 2637 4538 2607 C 4565 2578 4566 2570 4539 2570 C 4528 2570 4521 2566 4524 2562 C 4532 2549 4630 2547 4630 2560 C 4630 2565 4619 2570 4606 2570 C 4590 2570 4579 2577 4575 2591 C 4556 2649 4444 2669 4391 2624 z" stroke-linecap="round" />
</g>
<g transform="matrix(0.13 0 0 -0.13 724.95 444.2)"  >
<path style="stroke: none; stroke-width: 1; stroke-dasharray: none; stroke-linecap: butt; stroke-dashoffset: 0; stroke-linejoin: miter; stroke-miterlimit: 4; fill: rgb(255,255,255); fill-rule: nonzero; opacity: 1;" vector-effect="non-scaling-stroke"  transform=" translate(-4092.36, -2281.24)" d="M 4040 2373 C 3993 2356 3940 2270 3954 2235 C 3958 2223 3947 2220 3895 2220 C 3860 2220 3828 2216 3825 2210 C 3821 2204 3860 2200 3934 2200 C 4005 2200 4050 2204 4050 2210 C 4050 2216 4035 2220 4016 2220 C 3956 2220 3958 2282 4020 2333 C 4079 2383 4164 2361 4188 2290 C 4194 2274 4195 2260 4190 2260 C 4178 2260 4120 2210 4120 2199 C 4120 2195 4136 2202 4156 2215 C 4216 2256 4301 2247 4342 2196 C 4356 2180 4360 2178 4360 2191 C 4360 2219 4315 2251 4265 2258 C 4222 2264 4217 2268 4206 2300 C 4187 2360 4104 2396 4040 2373 z" stroke-linecap="round" />
</g>
<g transform="matrix(0.13 0 0 -0.13 752.59 468.31)"  >
<path style="stroke: none; stroke-width: 1; stroke-dasharray: none; stroke-linecap: butt; stroke-dashoffset: 0; stroke-linejoin: miter; stroke-miterlimit: 4; fill: rgb(255,255,255); fill-rule: nonzero; opacity: 1;" vector-effect="non-scaling-stroke"  transform=" translate(-4299.61, -2100.41)" d="M 4020 2100 C 4020 2094 4128 2091 4328 2092 C 4518 2092 4610 2096 4570 2100 C 4467 2112 4020 2112 4020 2100 z" stroke-linecap="round" />
</g>
<g transform="matrix(0.13 0 0 -0.13 754.88 479.86)"  >
<path style="stroke: none; stroke-width: 1; stroke-dasharray: none; stroke-linecap: butt; stroke-dashoffset: 0; stroke-linejoin: miter; stroke-miterlimit: 4; fill: rgb(255,255,255); fill-rule: nonzero; opacity: 1;" vector-effect="non-scaling-stroke"  transform=" translate(-4316.82, -2013.75)" d="M 4203 2013 C 4268 2011 4371 2011 4433 2013 C 4495 2014 4442 2016 4315 2016 C 4189 2016 4138 2014 4203 2013 z" stroke-linecap="round" />
</g>
<g transform="matrix(0.13 0 0 -0.13 460.59 567.34)"  >
<path style="stroke: none; stroke-width: 1; stroke-dasharray: none; stroke-linecap: butt; stroke-dashoffset: 0; stroke-linejoin: miter; stroke-miterlimit: 4; fill: rgb(255,255,255); fill-rule: nonzero; opacity: 1;" vector-effect="non-scaling-stroke"  transform=" translate(-2109.62, -1357.68)" d="M 2115 1394 C 2093 1387 2074 1380 2073 1380 C 2072 1380 2066 1371 2060 1360 C 2053 1346 2052 1334 2059 1322 C 2068 1308 2069 1308 2070 1321 C 2070 1347 2094 1370 2134 1384 C 2155 1391 2169 1400 2164 1403 C 2159 1406 2137 1402 2115 1394 z" stroke-linecap="round" />
</g>
</svg>